<?xml version="1.0" encoding="UTF-8"?>
<svg height="16px" viewBox="0 0 16 16" width="16px" xmlns="http://www.w3.org/2000/svg" xmlns:xlink="http://www.w3.org/1999/xlink">
    <filter id="a" height="100%" width="100%" x="0%" y="0%">
        <feColorMatrix in="SourceGraphic" type="matrix" values="0 0 0 0 1 0 0 0 0 1 0 0 0 0 1 0 0 0 1 0"/>
    </filter>
    <mask id="b">
        <g filter="url(#a)">
            <path d="m 0 0 h 16 v 16 h -16 z" fill-opacity="0.3"/>
        </g>
    </mask>
    <clipPath id="c">
        <path d="m 0 0 h 1024 v 800 h -1024 z"/>
    </clipPath>
    <mask id="d">
        <g filter="url(#a)">
            <path d="m 0 0 h 16 v 16 h -16 z" fill-opacity="0.05"/>
        </g>
    </mask>
    <clipPath id="e">
        <path d="m 0 0 h 1024 v 800 h -1024 z"/>
    </clipPath>
    <mask id="f">
        <g filter="url(#a)">
            <path d="m 0 0 h 16 v 16 h -16 z" fill-opacity="0.05"/>
        </g>
    </mask>
    <clipPath id="g">
        <path d="m 0 0 h 1024 v 800 h -1024 z"/>
    </clipPath>
    <mask id="h">
        <g filter="url(#a)">
            <path d="m 0 0 h 16 v 16 h -16 z" fill-opacity="0.05"/>
        </g>
    </mask>
    <clipPath id="i">
        <path d="m 0 0 h 1024 v 800 h -1024 z"/>
    </clipPath>
    <mask id="j">
        <g filter="url(#a)">
            <path d="m 0 0 h 16 v 16 h -16 z" fill-opacity="0.05"/>
        </g>
    </mask>
    <clipPath id="k">
        <path d="m 0 0 h 1024 v 800 h -1024 z"/>
    </clipPath>
    <mask id="l">
        <g filter="url(#a)">
            <path d="m 0 0 h 16 v 16 h -16 z" fill-opacity="0.05"/>
        </g>
    </mask>
    <clipPath id="m">
        <path d="m 0 0 h 1024 v 800 h -1024 z"/>
    </clipPath>
    <mask id="n">
        <g filter="url(#a)">
            <path d="m 0 0 h 16 v 16 h -16 z" fill-opacity="0.05"/>
        </g>
    </mask>
    <clipPath id="o">
        <path d="m 0 0 h 1024 v 800 h -1024 z"/>
    </clipPath>
    <mask id="p">
        <g filter="url(#a)">
            <path d="m 0 0 h 16 v 16 h -16 z" fill-opacity="0.3"/>
        </g>
    </mask>
    <clipPath id="q">
        <path d="m 0 0 h 1024 v 800 h -1024 z"/>
    </clipPath>
    <mask id="r">
        <g filter="url(#a)">
            <path d="m 0 0 h 16 v 16 h -16 z" fill-opacity="0.5"/>
        </g>
    </mask>
    <clipPath id="s">
        <path d="m 0 0 h 1024 v 800 h -1024 z"/>
    </clipPath>
    <mask id="t">
        <g filter="url(#a)">
            <path d="m 0 0 h 16 v 16 h -16 z" fill-opacity="0.4"/>
        </g>
    </mask>
    <clipPath id="u">
        <path d="m 0 0 h 1024 v 800 h -1024 z"/>
    </clipPath>
    <mask id="v">
        <g filter="url(#a)">
            <path d="m 0 0 h 16 v 16 h -16 z" fill-opacity="0.4"/>
        </g>
    </mask>
    <clipPath id="w">
        <path d="m 0 0 h 1024 v 800 h -1024 z"/>
    </clipPath>
    <mask id="x">
        <g filter="url(#a)">
            <path d="m 0 0 h 16 v 16 h -16 z" fill-opacity="0.5"/>
        </g>
    </mask>
    <clipPath id="y">
        <path d="m 0 0 h 1024 v 800 h -1024 z"/>
    </clipPath>
    <mask id="z">
        <g filter="url(#a)">
            <path d="m 0 0 h 16 v 16 h -16 z" fill-opacity="0.5"/>
        </g>
    </mask>
    <clipPath id="A">
        <path d="m 0 0 h 1024 v 800 h -1024 z"/>
    </clipPath>
    <g clip-path="url(#c)" mask="url(#b)" transform="matrix(1 0 0 1 -240 -296)">
        <path d="m 562.460938 212.058594 h 10.449218 c -1.183594 0.492187 -1.296875 2.460937 0 3 h -10.449218 z m 0 0" fill="#2e3436"/>
    </g>
    <g clip-path="url(#e)" mask="url(#d)" transform="matrix(1 0 0 1 -240 -296)">
        <path d="m 16 632 h 1 v 1 h -1 z m 0 0" fill="#2e3436" fill-rule="evenodd"/>
    </g>
    <g clip-path="url(#g)" mask="url(#f)" transform="matrix(1 0 0 1 -240 -296)">
        <path d="m 17 631 h 1 v 1 h -1 z m 0 0" fill="#2e3436" fill-rule="evenodd"/>
    </g>
    <g clip-path="url(#i)" mask="url(#h)" transform="matrix(1 0 0 1 -240 -296)">
        <path d="m 18 634 h 1 v 1 h -1 z m 0 0" fill="#2e3436" fill-rule="evenodd"/>
    </g>
    <g clip-path="url(#k)" mask="url(#j)" transform="matrix(1 0 0 1 -240 -296)">
        <path d="m 16 634 h 1 v 1 h -1 z m 0 0" fill="#2e3436" fill-rule="evenodd"/>
    </g>
    <g clip-path="url(#m)" mask="url(#l)" transform="matrix(1 0 0 1 -240 -296)">
        <path d="m 17 635 h 1 v 1 h -1 z m 0 0" fill="#2e3436" fill-rule="evenodd"/>
    </g>
    <g clip-path="url(#o)" mask="url(#n)" transform="matrix(1 0 0 1 -240 -296)">
        <path d="m 19 635 h 1 v 1 h -1 z m 0 0" fill="#2e3436" fill-rule="evenodd"/>
    </g>
    <g clip-path="url(#q)" mask="url(#p)" transform="matrix(1 0 0 1 -240 -296)">
        <path d="m 136 660 v 7 h 7 v -7 z m 0 0" fill="#2e3436"/>
    </g>
    <g clip-path="url(#s)" mask="url(#r)" transform="matrix(1 0 0 1 -240 -296)">
        <path d="m 199 642 h 3 v 12 h -3 z m 0 0" fill="#2e3436"/>
    </g>
    <path d="m 7.355469 0.238281 c -0.230469 -0.003906 -0.464844 0.003907 -0.699219 0.015625 c -1.882812 0.105469 -3.84375 0.792969 -5.625 2.308594 c -0.316406 0.265625 -0.355469 0.738281 -0.089844 1.054688 c 0.265625 0.316406 0.742188 0.355468 1.054688 0.089843 c 3.09375 -2.621093 6.609375 -2.332031 9.101562 -0.953125 c 1.25 0.6875 2.210938 1.65625 2.6875 2.609375 c 0.480469 0.953125 0.507813 1.8125 -0.003906 2.601563 c -0.570312 0.878906 -2.347656 1.5 -3.828125 -0.136719 c -0.886719 -0.984375 -2.085937 -1.332031 -3.136719 -1.132813 c -1.046875 0.195313 -1.953125 0.878907 -2.476562 1.832032 c -0.523438 0.949218 -0.632813 2.191406 -0.089844 3.398437 c 0.546875 1.203125 1.707031 2.339844 3.613281 3.277344 c 0.371094 0.179687 0.820313 0.027344 1.003907 -0.34375 c 0.183593 -0.371094 0.03125 -0.820313 -0.34375 -1.003906 c -1.6875 -0.828125 -2.542969 -1.753907 -2.90625 -2.550781 c -0.363282 -0.796876 -0.273438 -1.492188 0.035156 -2.054688 c 0.3125 -0.566406 0.871094 -0.972656 1.445312 -1.082031 c 0.574219 -0.109375 1.160156 0.023437 1.742188 0.664062 c 2.03125 2.25 5.046875 1.726563 6.199218 -0.050781 c 0.824219 -1.265625 0.738282 -2.792969 0.089844 -4.089844 c -0.648437 -1.296875 -1.828125 -2.4375 -3.304687 -3.25 c -1.292969 -0.714844 -2.839844 -1.167968 -4.46875 -1.199218 z m 0.050781 3.316407 c -1.4375 0.027343 -2.851562 0.515624 -3.988281 1.363281 c -1.300781 0.96875 -2.273438 2.417969 -2.527344 4.160156 c -0.25 1.742187 0.234375 3.746094 1.683594 5.773437 c 0.117187 0.160157 0.292969 0.269532 0.488281 0.304688 c 0.195312 0.03125 0.398438 -0.015625 0.558594 -0.132812 c 0.335937 -0.238282 0.414062 -0.707032 0.171875 -1.042969 c -1.269531 -1.78125 -1.605469 -3.367188 -1.417969 -4.6875 c 0.191406 -1.320313 0.921875 -2.414063 1.9375 -3.171875 c 2.035156 -1.511719 5.089844 -1.632813 7.039062 0.785156 c 0.261719 0.324219 0.734376 0.375 1.054688 0.113281 c 0.324219 -0.257812 0.375 -0.730469 0.113281 -1.050781 c -1.226562 -1.523438 -2.851562 -2.269531 -4.496093 -2.394531 c -0.207032 -0.015625 -0.410157 -0.019531 -0.617188 -0.019531 z m 0.007812 6.15625 c -0.152343 0.003906 -0.300781 0.054687 -0.421874 0.140624 c -0.160157 0.117188 -0.269532 0.292969 -0.304688 0.488282 c -0.03125 0.195312 0.015625 0.398437 0.132812 0.558594 c 1.148438 1.605468 3.339844 2.820312 5.546876 2.519531 c 0.410156 -0.054688 0.699218 -0.433594 0.640624 -0.84375 c -0.054687 -0.410157 -0.433593 -0.699219 -0.84375 -0.644531 c -1.480468 0.203124 -3.320312 -0.78125 -4.125 -1.90625 c -0.144531 -0.199219 -0.378906 -0.316407 -0.625 -0.3125 z m 0 0" fill="#2e3436"/>
    <g clip-path="url(#u)" mask="url(#t)" transform="matrix(1 0 0 1 -240 -296)">
        <path d="m 209.5 144.160156 c 0.277344 0 0.5 0.222656 0.5 0.5 v 1 c 0 0.277344 -0.222656 0.5 -0.5 0.5 s -0.5 -0.222656 -0.5 -0.5 v -1 c 0 -0.277344 0.222656 -0.5 0.5 -0.5 z m 0 0" fill="#2e3436"/>
    </g>
    <g clip-path="url(#w)" mask="url(#v)" transform="matrix(1 0 0 1 -240 -296)">
        <path d="m 206.5 144.160156 c 0.277344 0 0.5 0.222656 0.5 0.5 v 1 c 0 0.277344 -0.222656 0.5 -0.5 0.5 s -0.5 -0.222656 -0.5 -0.5 v -1 c 0 -0.277344 0.222656 -0.5 0.5 -0.5 z m 0 0" fill="#2e3436"/>
    </g>
    <g clip-path="url(#y)" mask="url(#x)" transform="matrix(1 0 0 1 -240 -296)">
        <path d="m 229.5 143.160156 c -0.546875 0 -1 0.457032 -1 1 c 0 0.546875 0.453125 1 1 1 s 1 -0.453125 1 -1 c 0 -0.542968 -0.453125 -1 -1 -1 z m 0 0" fill="#2e3436"/>
    </g>
    <g clip-path="url(#A)" mask="url(#z)" transform="matrix(1 0 0 1 -240 -296)">
        <path d="m 226.453125 143.160156 c -0.519531 0 -0.953125 0.433594 -0.953125 0.953125 v 0.09375 c 0 0.519531 0.433594 0.953125 0.953125 0.953125 h 0.09375 c 0.519531 0 0.953125 -0.433594 0.953125 -0.953125 v -0.09375 c 0 -0.519531 -0.433594 -0.953125 -0.953125 -0.953125 z m 0 0" fill="#2e3436"/>
    </g>
</svg>
