<?xml version="1.0" encoding="UTF-8"?>
<svg height="16px" viewBox="0 0 16 16" width="16px" xmlns="http://www.w3.org/2000/svg">
    <path d="m 8.09375 0.476562 s -0.386719 1.960938 0.351562 3.503907 l 1.089844 2.277343 l -1.792968 -1.136718 c -2.113282 -1.171875 -2.84375 -1.453125 -3.421876 -1.453125 l -0.273437 0.25 c -0.078125 0.773437 0.929687 1.71875 0.929687 1.71875 l 0.75 -0.746094 s 2.730469 1.15625 -0.195312 1.609375 l 1.808594 1.09375 l -0.820313 0.097656 c -1.84375 0.21875 -3.742187 1.296875 -3.742187 1.296875 s 1.789062 0.644531 3.636718 0.425781 l 2.109376 -0.253906 l -3.421876 4.097656 c -0.320312 0.386719 -0.238281 0.929688 0.1875 1.222657 l 0.273438 0.1875 l 0.640625 0.445312 h 0.003906 l 0.273438 0.1875 c 0.421875 0.292969 1.019531 0.21875 1.339843 -0.167969 l 5.503907 -6.589843 c 0.320312 -0.386719 0.238281 -0.929688 -0.1875 -1.222657 l -0.269531 -0.1875 l -0.003907 -0.003906 l -0.191406 -0.128906 v -0.039062 l -0.050781 0.003906 l -0.140625 -0.097656 l -1.78125 -3.71875 c -0.738281 -1.542969 -2.605469 -2.671876 -2.605469 -2.671876 z m 1.875 1.738282 l 1.425781 2.996094 c -1.628906 -2.457032 -1.425781 -2.996094 -1.425781 -2.996094 z m -1.066406 7.484375 h 0.226562 l -0.144531 0.625 h 0.40625 l 0.144531 -0.625 h 0.222656 l -0.140624 0.625 h 0.429687 v 0.230469 h -0.488281 l -0.113282 0.503906 h 0.445313 v 0.226562 h -0.496094 l -0.144531 0.625 h -0.222656 l 0.140625 -0.625 h -0.40625 l -0.144531 0.625 h -0.222657 l 0.144531 -0.625 h -0.4375 v -0.226562 h 0.488282 l 0.117187 -0.503906 h -0.445312 v -0.230469 h 0.5 z m 0.03125 0.855469 l -0.117188 0.503906 h 0.40625 l 0.113282 -0.503906 z m 0 0" fill="#241f31"/>
</svg>
