<?xml version="1.0" encoding="UTF-8"?>
<svg height="128px" viewBox="0 0 128 128" width="128px" xmlns="http://www.w3.org/2000/svg" xmlns:xlink="http://www.w3.org/1999/xlink">
    <linearGradient id="a" gradientUnits="userSpaceOnUse">
        <stop offset="0" stop-color="#c0bfbc"/>
        <stop offset="0.520057" stop-color="#deddda"/>
        <stop offset="1" stop-color="#c0bfbc"/>
    </linearGradient>
    <linearGradient id="b" x1="14.881946" x2="57.24205" xlink:href="#a" y1="37.472794" y2="76.129044"/>
    <linearGradient id="c" gradientTransform="matrix(0.866025 0.5 -0.5 0.866025 125.77053 -181.401234)" x1="32.168236" x2="64.444725" xlink:href="#a" y1="195.258087" y2="242.450409"/>
    <linearGradient id="d" gradientUnits="userSpaceOnUse" x1="29.999985" x2="118" y1="82.000534" y2="82.000534">
        <stop offset="0" stop-color="#8b1826"/>
        <stop offset="0.159091" stop-color="#ed333b"/>
        <stop offset="0.295455" stop-color="#a51d2d"/>
        <stop offset="1" stop-color="#901927"/>
    </linearGradient>
    <clipPath id="e">
        <rect height="128" width="128"/>
    </clipPath>
    <clipPath id="f">
        <rect height="128" width="128"/>
    </clipPath>
    <filter id="g" height="100%" width="100%" x="0%" y="0%">
        <feColorMatrix in="SourceGraphic" type="matrix" values="0 0 0 0 1 0 0 0 0 1 0 0 0 0 1 0 0 0 1 0"/>
    </filter>
    <mask id="h">
        <g clip-path="url(#f)" filter="url(#g)">
            <g clip-path="url(#e)">
                <path d="m 16 46 c 0 13.253906 10.746094 22 24 22 v -14 h 12 c 2.210938 0 4 1.789062 4 4 s -1.789062 4 -4 4 h -6 v 6 h 48 v -22 z m 0 0" fill="#9a9996"/>
                <path d="m 16 44 c 0 13.253906 10.746094 22 24 22 v -14 h 12 c 2.210938 0 4 1.789062 4 4 s -1.789062 4 -4 4 h -6 v 6 h 48 v -22 z m 0 0" fill="url(#b)"/>
                <path d="m 108.640625 47.269531 l -72.746094 -42 c -6 10.390625 4.320313 32.515625 19.910157 41.515625 l 39.835937 23 z m 0 0" fill="#9a9996"/>
                <path d="m 108.640625 44.269531 l -72.746094 -42 c -6 10.390625 4.320313 32.515625 19.910157 41.515625 l 39.835937 23 z m 0 0" fill="url(#c)"/>
                <path d="m 45.289062 10 l 27.710938 16 c -0.5 0.867188 -2.730469 0.730469 -4.464844 -0.269531 l -20.785156 -12 c -1.730469 -1 -2.960938 -2.863281 -2.460938 -3.730469 z m 0 0" fill="#77767b"/>
                <path d="m 101.164062 38.019531 c -1.117187 0.058594 -2.222656 0.234375 -3.304687 0.527344 c -2.714844 0.726563 -5.1875 2.152344 -7.171875 4.140625 l -56 56 c -1.515625 1.515625 -2.707031 3.324219 -3.507812 5.3125 h -1.179688 v 5.980469 c -0.003906 4.25 1.679688 8.328125 4.6875 11.332031 c 6.246094 6.25 16.378906 6.25 22.625 0 l 56 -56 c 3.246094 -3.246094 4.941406 -7.730469 4.65625 -12.3125 h 0.03125 v -6 h -1.621094 c -0.773437 -1.597656 -1.8125 -3.054688 -3.066406 -4.3125 c -3.203125 -3.207031 -7.621094 -4.902344 -12.148438 -4.667969 z m 0 0" fill="url(#d)"/>
                <path d="m 97.859375 32.542969 c -2.714844 0.730469 -5.1875 2.15625 -7.171875 4.144531 l -56 56 c -6.25 6.246094 -6.25 16.378906 0 22.625 c 6.246094 6.25 16.378906 6.25 22.625 0 l 56 -56 c 6.25 -6.246094 6.25 -16.378906 0 -22.625 c -4.039062 -4.042969 -9.933594 -5.621094 -15.453125 -4.144531 z m 0 0" fill="#e01b24"/>
                <path d="m 82 242 l -12 12" fill="none" stroke="#ffffff" stroke-width="3" transform="matrix(-1 0 0 1 126 -148)"/>
                <path d="m 78 238 l -12 12" fill="none" stroke="#ffffff" stroke-width="3" transform="matrix(-1 0 0 1 126 -148)"/>
                <path d="m 66 242 l 12 12" fill="none" stroke="#ffffff" stroke-width="3" transform="matrix(-1 0 0 1 126 -148)"/>
                <path d="m 70 238 l 12 12" fill="none" stroke="#ffffff" stroke-width="3" transform="matrix(-1 0 0 1 126 -148)"/>
            </g>
        </g>
    </mask>
    <mask id="i">
        <g filter="url(#g)">
            <rect fill-opacity="0.8" height="128" width="128"/>
        </g>
    </mask>
    <linearGradient id="j" gradientTransform="matrix(0 0.37 -0.98462 0 295.38501 -30.360001)" gradientUnits="userSpaceOnUse" x1="300" x2="428" y1="235" y2="235">
        <stop offset="0" stop-color="#f9f06b"/>
        <stop offset="1" stop-color="#f5c211"/>
    </linearGradient>
    <clipPath id="k">
        <rect height="128" width="128"/>
    </clipPath>
    <clipPath id="l">
        <rect height="128" width="128"/>
    </clipPath>
    <path d="m 16 46 c 0 13.253906 10.746094 22 24 22 v -14 h 12 c 2.210938 0 4 1.789062 4 4 s -1.789062 4 -4 4 h -6 v 6 h 48 v -22 z m 0 0" fill="#9a9996"/>
    <path d="m 16 44 c 0 13.253906 10.746094 22 24 22 v -14 h 12 c 2.210938 0 4 1.789062 4 4 s -1.789062 4 -4 4 h -6 v 6 h 48 v -22 z m 0 0" fill="url(#b)"/>
    <path d="m 108.640625 47.269531 l -72.746094 -42 c -6 10.390625 4.320313 32.515625 19.910157 41.515625 l 39.835937 23 z m 0 0" fill="#9a9996"/>
    <path d="m 108.640625 44.269531 l -72.746094 -42 c -6 10.390625 4.320313 32.515625 19.910157 41.515625 l 39.835937 23 z m 0 0" fill="url(#c)"/>
    <path d="m 45.289062 10 l 27.710938 16 c -0.5 0.867188 -2.730469 0.730469 -4.464844 -0.269531 l -20.785156 -12 c -1.730469 -1 -2.960938 -2.863281 -2.460938 -3.730469 z m 0 0" fill="#77767b"/>
    <path d="m 101.164062 38.019531 c -1.117187 0.058594 -2.222656 0.234375 -3.304687 0.527344 c -2.714844 0.726563 -5.1875 2.152344 -7.171875 4.140625 l -56 56 c -1.515625 1.515625 -2.707031 3.324219 -3.507812 5.3125 h -1.179688 v 5.980469 c -0.003906 4.25 1.679688 8.328125 4.6875 11.332031 c 6.246094 6.25 16.378906 6.25 22.625 0 l 56 -56 c 3.246094 -3.246094 4.941406 -7.730469 4.65625 -12.3125 h 0.03125 v -6 h -1.621094 c -0.773437 -1.597656 -1.8125 -3.054688 -3.066406 -4.3125 c -3.203125 -3.207031 -7.621094 -4.902344 -12.148438 -4.667969 z m 0 0" fill="url(#d)"/>
    <path d="m 97.859375 32.542969 c -2.714844 0.730469 -5.1875 2.15625 -7.171875 4.144531 l -56 56 c -6.25 6.246094 -6.25 16.378906 0 22.625 c 6.246094 6.25 16.378906 6.25 22.625 0 l 56 -56 c 6.25 -6.246094 6.25 -16.378906 0 -22.625 c -4.039062 -4.042969 -9.933594 -5.621094 -15.453125 -4.144531 z m 0 0" fill="#e01b24"/>
    <g fill="none" stroke="#ffffff" stroke-width="3" transform="matrix(-1 0 0 1 126 -148)">
        <path d="m 82 242 l -12 12"/>
        <path d="m 78 238 l -12 12"/>
        <path d="m 66 242 l 12 12"/>
        <path d="m 70 238 l 12 12"/>
    </g>
    <g clip-path="url(#l)" mask="url(#h)">
        <g clip-path="url(#k)" mask="url(#i)">
            <path d="m 128 80.640625 v 47.359375 h -128 v -47.359375 z m 0 0" fill="url(#j)"/>
            <path d="m 13.308594 80.640625 l 47.355468 47.359375 h 21.214844 l -47.359375 -47.359375 z m 42.421875 0 l 47.363281 47.359375 h 21.214844 l -47.363282 -47.359375 z m 42.429687 0 l 29.839844 29.839844 v -21.210938 l -8.628906 -8.628906 z m -98.160156 7.90625 v 21.214844 l 18.238281 18.238281 h 21.214844 z m 0 0"/>
        </g>
    </g>
</svg>
