<?xml version="1.0" encoding="UTF-8"?>
<svg height="128px" viewBox="0 0 128 128" width="128px" xmlns="http://www.w3.org/2000/svg" xmlns:xlink="http://www.w3.org/1999/xlink">
    <symbol id="a" overflow="visible">
        <path d="m 11.8125 -11 h -3.28125 l -0.953125 4.078125 h 3.3125 z m -1.6875 -6.9375 l -1.171875 5.0625 h 3.296875 l 1.171875 -5.0625 h 1.8125 l -1.15625 5.0625 h 3.515625 v 1.875 h -3.96875 l -0.921875 4.078125 h 3.59375 v 1.875 h -4.03125 l -1.171875 5.046875 h -1.8125 l 1.171875 -5.046875 h -3.3125 l -1.15625 5.046875 h -1.828125 l 1.1875 -5.046875 h -3.5625 v -1.875 h 3.96875 l 0.953125 -4.078125 h -3.640625 v -1.875 h 4.078125 l 1.15625 -5.0625 z m 0 0"/>
    </symbol>
    <path d="m 100.101562 56.597656 l -49.957031 5.929688 c -14.992187 1.78125 -30.410156 10.558594 -30.410156 10.558594 s 14.546875 5.21875 29.539063 3.4375 l 49.957031 -5.933594 z" fill="#77767b"/>
    <path d="m 101.390625 55.882812 l -49.957031 5.929688 c -14.992188 1.78125 -30.410156 10.558594 -30.410156 10.558594 s 14.546874 5.21875 29.539062 3.4375 l 49.957031 -5.933594 z" fill="#9a9996"/>
    <path d="m 101.003906 66.417969 l -40.558594 -25.660157 c -17.164062 -9.519531 -23.070312 -11.792968 -27.785156 -11.792968 l -2.199218 2.050781 c -0.632813 6.257813 7.535156 13.9375 7.535156 13.9375 l 6.101562 -6.042969 s 22.179688 9.394532 -1.601562 13.050782 l 40.253906 24.363281 z" fill="#9a9996"/>
    <path d="m 101.898438 66.597656 l -40.558594 -25.660156 c -17.164063 -9.519531 -23.070313 -11.792969 -27.785156 -11.792969 l -2.199219 2.050781 c -0.632813 6.257813 7.535156 13.941407 7.535156 13.941407 l 6.097656 -6.042969 s 22.183594 9.390625 -1.597656 13.050781 l 40.253906 24.359375 z" fill="#c0bfbc"/>
    <path d="m 71.082031 15.222656 s 7.386719 8.527344 3.796875 13.566406 c -3.589844 5.035157 -3.796875 -13.566406 -3.796875 -13.566406 z m 0 0" fill="#77767b"/>
    <path d="m 104.726562 66.339844 l -19.992187 -41.742188 c -5.996094 -12.523437 -21.140625 -21.667968 -21.140625 -21.667968 s -3.148438 15.894531 2.847656 28.417968 l 19.988282 41.742188 z" fill="#c0bfbc"/>
    <path d="m 105.351562 66.671875 l -19.988281 -41.742187 c -6 -12.527344 -21.140625 -21.671876 -21.140625 -21.671876 s -3.152344 15.894532 2.84375 28.421876 l 19.992188 41.742187 z" fill="#deddda"/>
    <path d="m 97.742188 53.695312 l 7.4375 5.128907 c 3.425781 2.359375 4.09375 6.796875 1.496093 9.910156 l -44.675781 53.535156 c -2.597656 3.109375 -7.476562 3.71875 -10.902344 1.359375 l -7.4375 -5.132812 c -3.421875 -2.359375 -4.09375 -6.796875 -1.496094 -9.910156 l 44.675782 -53.53125 c 2.597656 -3.113282 7.480468 -3.722657 10.902344 -1.359376 z m 0 0" fill="#a51d2d" fill-rule="evenodd"/>
    <path d="m 95.5 52.144531 l 7.4375 5.132813 c 3.421875 2.359375 4.09375 6.796875 1.496094 9.910156 l -44.675782 53.53125 c -2.597656 3.113281 -7.480468 3.722656 -10.902343 1.363281 l -7.4375 -5.132812 c -3.425781 -2.359375 -4.09375 -6.796875 -1.496094 -9.910157 l 44.675781 -53.535156 c 2.597656 -3.109375 7.476563 -3.71875 10.902344 -1.359375 z m 0 0" fill="#e01b24" fill-rule="evenodd"/>
    <path d="m 91.023438 41.671875 c -13.25 -19.9375 -11.585938 -24.316406 -11.585938 -24.316406 z m 0 0" fill="#9a9996"/>
    <use fill="#a51d2d" x="62.492188" xlink:href="#a" y="96.082194"/>
</svg>
